<?xml version="1.0" encoding="UTF-8"?>
<svg xmlns="http://www.w3.org/2000/svg"
     width="1087" height="211"
     viewBox="0 0 1087 211"
     role="img" aria-labelledby="title">
  <title id="title">BakimX Horizontal Logo Light</title>
  <defs>
    
<linearGradient id="navy" x1="0%" y1="0%" x2="100%" y2="100%">
  <stop offset="0%" stop-color="#071F49"/>
  <stop offset="100%" stop-color="#031432"/>
</linearGradient>
<linearGradient id="blue" x1="0%" y1="0%" x2="100%" y2="100%">
  <stop offset="0%" stop-color="#2F84FF"/>
  <stop offset="55%" stop-color="#0865E8"/>
  <stop offset="100%" stop-color="#064BBF"/>
</linearGradient>

  </defs>
  
<path d="M 62.00,182.00 L 63.00,183.00 L 70.00,183.00 L 71.00,182.00 L 76.00,183.00 L 78.00,182.00 L 124.00,182.00 L 125.00,183.00 L 193.00,182.00 L 207.00,167.00 L 207.00,164.00 L 205.00,159.00 L 202.00,156.00 L 194.00,152.00 L 177.00,148.00 L 153.00,146.00 L 133.00,133.00 L 121.00,128.00 L 102.00,127.00 L 101.00,126.00 L 100.00,127.00 L 89.00,127.00 Z M 90.00,156.00 L 91.00,155.00 L 100.00,155.00 L 101.00,156.00 L 125.00,157.00 L 139.00,160.00 L 154.00,166.00 L 155.00,163.00 L 160.00,158.00 L 166.00,155.00 L 177.00,155.00 L 182.00,157.00 L 188.00,163.00 L 190.00,167.00 L 190.00,173.00 L 189.00,174.00 L 187.00,173.00 L 186.00,168.00 L 181.00,163.00 L 177.00,161.00 L 168.00,161.00 L 161.00,166.00 L 158.00,172.00 L 157.00,179.00 L 154.00,180.00 L 149.00,174.00 L 132.00,165.00 L 111.00,160.00 L 91.00,158.00 Z M 99.00,132.00 L 100.00,131.00 L 115.00,131.00 L 124.00,133.00 L 135.00,138.00 L 142.00,143.00 L 144.00,146.00 L 143.00,147.00 L 134.00,147.00 L 133.00,146.00 L 109.00,145.00 L 103.00,141.00 Z M 784.00,78.00 L 784.00,166.00 L 807.00,166.00 L 807.00,99.00 L 808.00,98.00 L 836.00,98.00 L 839.00,101.00 L 840.00,104.00 L 840.00,162.00 L 839.00,165.00 L 840.00,166.00 L 862.00,166.00 L 863.00,165.00 L 863.00,99.00 L 864.00,98.00 L 885.00,98.00 L 892.00,102.00 L 895.00,108.00 L 895.00,165.00 L 896.00,166.00 L 918.00,166.00 L 919.00,165.00 L 919.00,110.00 L 918.00,109.00 L 918.00,102.00 L 914.00,92.00 L 903.00,82.00 L 889.00,78.00 Z M 744.00,78.00 L 743.00,79.00 L 743.00,165.00 L 744.00,166.00 L 766.00,166.00 L 766.00,78.00 Z M 519.00,78.00 L 519.00,97.00 L 520.00,98.00 L 583.00,98.00 L 586.00,99.00 L 590.00,104.00 L 590.00,112.00 L 589.00,113.00 L 532.00,113.00 L 521.00,117.00 L 515.00,123.00 L 511.00,135.00 L 512.00,149.00 L 519.00,160.00 L 526.00,164.00 L 534.00,166.00 L 613.00,166.00 L 613.00,100.00 L 610.00,91.00 L 604.00,84.00 L 599.00,81.00 L 588.00,78.00 Z M 534.00,138.00 L 535.00,135.00 L 540.00,131.00 L 589.00,131.00 L 590.00,132.00 L 590.00,146.00 L 589.00,147.00 L 540.00,147.00 L 535.00,143.00 Z M 374.00,51.00 L 374.00,165.00 L 375.00,166.00 L 463.00,166.00 L 478.00,163.00 L 487.00,158.00 L 492.00,153.00 L 498.00,141.00 L 499.00,134.00 L 498.00,124.00 L 494.00,115.00 L 484.00,105.00 L 490.00,100.00 L 493.00,94.00 L 495.00,80.00 L 491.00,66.00 L 483.00,57.00 L 476.00,53.00 L 464.00,50.00 L 375.00,50.00 Z M 398.00,119.00 L 399.00,118.00 L 461.00,118.00 L 467.00,120.00 L 472.00,125.00 L 474.00,133.00 L 472.00,138.00 L 463.00,144.00 L 399.00,144.00 L 398.00,143.00 Z M 398.00,73.00 L 399.00,72.00 L 459.00,72.00 L 465.00,74.00 L 469.00,78.00 L 470.00,89.00 L 465.00,95.00 L 460.00,97.00 L 399.00,97.00 L 398.00,96.00 Z M 631.00,42.00 L 631.00,166.00 L 653.00,166.00 L 654.00,165.00 L 654.00,126.00 L 655.00,125.00 L 666.00,134.00 L 698.00,166.00 L 731.00,166.00 L 685.00,121.00 L 700.00,105.00 L 729.00,78.00 L 696.00,78.00 L 655.00,117.00 L 654.00,116.00 L 654.00,42.00 Z M 100.00,5.00 L 85.00,44.00 L 85.00,47.00 L 215.00,47.00 L 222.00,53.00 L 223.00,58.00 L 221.00,64.00 L 215.00,70.00 L 210.00,72.00 L 118.00,72.00 L 114.00,78.00 L 99.00,112.00 L 187.00,112.00 L 192.00,113.00 L 203.00,118.00 L 227.00,145.00 L 251.00,118.00 L 235.00,98.00 L 235.00,96.00 L 253.00,84.00 L 261.00,74.00 L 267.00,60.00 L 268.00,42.00 L 266.00,34.00 L 260.00,23.00 L 248.00,12.00 L 240.00,8.00 L 229.00,5.00 Z" fill="url(#navy)" fill-rule="evenodd"/>
<path d="M 21.00,150.00 L 56.00,150.00 L 59.00,148.00 L 64.00,136.00 L 30.00,136.00 L 25.00,140.00 Z M 320.00,205.00 L 256.00,131.00 L 189.00,205.00 L 228.00,205.00 L 254.00,178.00 L 260.00,183.00 L 279.00,205.00 Z M 1018.00,138.00 L 1018.00,140.00 L 1057.00,178.00 L 1086.00,178.00 L 1086.00,161.00 L 1040.00,116.00 Z M 5.00,116.00 L 75.00,116.00 L 80.00,113.00 L 85.00,101.00 L 14.00,101.00 L 8.00,107.00 Z M 326.00,99.00 L 290.00,99.00 L 266.00,125.00 L 281.00,144.00 L 284.00,146.00 L 327.00,100.00 Z M 31.00,81.00 L 33.00,82.00 L 90.00,81.00 L 94.00,78.00 L 99.00,68.00 L 98.00,67.00 L 41.00,67.00 L 36.00,70.00 Z M 921.00,44.00 L 988.00,111.00 L 909.00,191.00 L 954.00,191.00 L 1033.00,109.00 L 968.00,44.00 Z M 745.00,44.00 L 744.00,45.00 L 744.00,65.00 L 746.00,66.00 L 747.00,65.00 L 765.00,65.00 L 766.00,64.00 L 766.00,45.00 L 765.00,44.00 Z M 1086.00,27.00 L 1067.00,27.00 L 1018.00,79.00 L 1040.00,102.00 L 1086.00,54.00 Z" fill="url(#blue)" fill-rule="evenodd"/>

</svg>
