<?xml version="1.0" encoding="UTF-8"?>
<svg xmlns="http://www.w3.org/2000/svg"
     width="754" height="147"
     viewBox="0 0 754 147"
     role="img" aria-labelledby="title">
  <title id="title">BakimX Horizontal Logo Dark</title>
  <defs>
    
<linearGradient id="blueDark" x1="0%" y1="0%" x2="100%" y2="100%">
  <stop offset="0%" stop-color="#2C86FF"/>
  <stop offset="55%" stop-color="#0865E8"/>
  <stop offset="100%" stop-color="#0649BB"/>
</linearGradient>

  </defs>
  
<path d="M 42.00,125.00 L 114.00,125.00 L 115.00,126.00 L 123.00,126.00 L 127.00,125.00 L 135.00,116.00 L 135.00,114.00 L 131.00,108.00 L 125.00,105.00 L 110.00,102.00 L 101.00,102.00 L 89.00,94.00 L 80.00,90.00 L 59.00,89.00 Z M 127.00,110.00 L 128.00,109.00 L 131.00,110.00 L 132.00,113.00 L 130.00,114.00 Z M 124.00,119.00 L 122.00,120.00 L 120.00,115.00 L 116.00,112.00 L 109.00,112.00 L 104.00,117.00 L 103.00,123.00 L 100.00,124.00 L 96.00,119.00 L 89.00,115.00 L 79.00,112.00 L 70.00,111.00 L 69.00,109.00 L 70.00,108.00 L 85.00,109.00 L 100.00,114.00 L 106.00,108.00 L 114.00,107.00 L 119.00,109.00 L 122.00,112.00 Z M 66.00,93.00 L 67.00,92.00 L 79.00,92.00 L 90.00,97.00 L 94.00,101.00 L 93.00,102.00 L 71.00,101.00 L 68.00,98.00 Z M 525.00,58.00 L 525.00,118.00 L 540.00,118.00 L 540.00,72.00 L 541.00,71.00 L 560.00,71.00 L 562.00,73.00 L 562.00,94.00 L 563.00,95.00 L 563.00,116.00 L 562.00,117.00 L 563.00,118.00 L 578.00,118.00 L 578.00,72.00 L 579.00,71.00 L 593.00,71.00 L 598.00,74.00 L 600.00,78.00 L 600.00,117.00 L 601.00,118.00 L 615.00,118.00 L 616.00,117.00 L 616.00,79.00 L 614.00,70.00 L 612.00,66.00 L 607.00,61.00 L 599.00,58.00 Z M 498.00,58.00 L 498.00,118.00 L 513.00,118.00 L 513.00,58.00 Z M 346.00,58.00 L 346.00,70.00 L 347.00,71.00 L 390.00,71.00 L 394.00,75.00 L 393.00,82.00 L 353.00,82.00 L 347.00,85.00 L 342.00,92.00 L 341.00,101.00 L 342.00,107.00 L 348.00,115.00 L 356.00,118.00 L 409.00,118.00 L 410.00,117.00 L 410.00,74.00 L 407.00,65.00 L 403.00,61.00 L 396.00,58.00 Z M 357.00,97.00 L 360.00,94.00 L 393.00,94.00 L 394.00,95.00 L 394.00,104.00 L 393.00,105.00 L 361.00,105.00 L 357.00,102.00 Z M 250.00,39.00 L 250.00,118.00 L 310.00,118.00 L 321.00,115.00 L 329.00,108.00 L 332.00,102.00 L 333.00,96.00 L 332.00,88.00 L 329.00,82.00 L 323.00,76.00 L 326.00,74.00 L 329.00,69.00 L 330.00,55.00 L 327.00,48.00 L 322.00,43.00 L 313.00,39.00 Z M 266.00,86.00 L 267.00,85.00 L 308.00,85.00 L 311.00,86.00 L 315.00,90.00 L 316.00,96.00 L 309.00,103.00 L 267.00,103.00 L 266.00,102.00 Z M 266.00,55.00 L 268.00,53.00 L 305.00,53.00 L 309.00,54.00 L 313.00,58.00 L 314.00,63.00 L 313.00,66.00 L 309.00,70.00 L 268.00,71.00 L 266.00,69.00 Z M 422.00,33.00 L 422.00,118.00 L 437.00,118.00 L 437.00,91.00 L 438.00,90.00 L 467.00,118.00 L 489.00,118.00 L 458.00,87.00 L 488.00,58.00 L 465.00,58.00 L 438.00,84.00 L 437.00,83.00 L 437.00,33.00 Z M 69.00,5.00 L 65.00,12.00 L 58.00,33.00 L 139.00,33.00 L 145.00,37.00 L 146.00,43.00 L 145.00,46.00 L 141.00,50.00 L 136.00,52.00 L 77.00,52.00 L 66.00,78.00 L 77.00,78.00 L 78.00,79.00 L 119.00,78.00 L 126.00,79.00 L 132.00,82.00 L 148.00,101.00 L 164.00,83.00 L 154.00,68.00 L 163.00,62.00 L 169.00,56.00 L 175.00,44.00 L 176.00,31.00 L 171.00,18.00 L 162.00,10.00 L 156.00,7.00 L 145.00,5.00 Z" fill="#FFFFFF" fill-rule="evenodd"/>
<path d="M 15.00,104.00 L 38.00,104.00 L 40.00,102.00 L 43.00,94.00 L 22.00,94.00 L 18.00,97.00 Z M 209.00,140.00 L 180.00,107.00 L 171.00,95.00 L 167.00,92.00 L 124.00,141.00 L 150.00,141.00 L 166.00,124.00 L 168.00,124.00 L 183.00,141.00 L 209.00,141.00 Z M 686.00,99.00 L 686.00,101.00 L 711.00,126.00 L 743.00,126.00 L 701.00,84.00 Z M 214.00,71.00 L 190.00,71.00 L 175.00,87.00 L 175.00,89.00 L 186.00,102.00 L 211.00,76.00 Z M 5.00,81.00 L 51.00,81.00 L 53.00,79.00 L 56.00,71.00 L 10.00,71.00 L 8.00,73.00 Z M 22.00,57.00 L 61.00,57.00 L 65.00,48.00 L 27.00,48.00 L 24.00,51.00 Z M 621.00,35.00 L 665.00,80.00 L 665.00,82.00 L 614.00,134.00 L 614.00,135.00 L 643.00,135.00 L 696.00,79.00 L 652.00,35.00 Z M 498.00,35.00 L 497.00,45.00 L 499.00,49.00 L 512.00,49.00 L 513.00,48.00 L 513.00,35.00 Z M 748.00,24.00 L 719.00,24.00 L 686.00,60.00 L 700.00,74.00 L 702.00,74.00 L 740.00,34.00 Z" fill="url(#blueDark)" fill-rule="evenodd"/>

</svg>
