<?xml version="1.0" encoding="UTF-8"?>
<svg id="logosandtypes_com" data-name="logosandtypes com" xmlns="http://www.w3.org/2000/svg" xmlns:xlink="http://www.w3.org/1999/xlink" viewBox="0 0 150 150">
  <defs>
    <style>
      .cls-1 {
        fill: url(#linear-gradient-2);
      }

      .cls-2 {
        fill: #fff;
      }

      .cls-3 {
        letter-spacing: -.02em;
      }

      .cls-4 {
        font-family: ArialMT, Arial;
        font-size: 1.64px;
        isolation: isolate;
      }

      .cls-5 {
        fill: url(#radial-gradient);
      }

      .cls-6 {
        fill: none;
      }

      .cls-7 {
        fill: url(#linear-gradient);
      }
    </style>
    <radialGradient id="radial-gradient" cx="122.38" cy="65.88" fx="122.38" fy="65.88" r="62.84" gradientTransform="translate(0 149.89) scale(1 -1)" gradientUnits="userSpaceOnUse">
      <stop offset="0" stop-color="#3133a2"/>
      <stop offset="1" stop-color="#0060f1"/>
    </radialGradient>
    <linearGradient id="linear-gradient" x1="93.71" y1="78.8" x2="63.79" y2="88.02" gradientTransform="translate(0 149.89) scale(1 -1)" gradientUnits="userSpaceOnUse">
      <stop offset=".06" stop-color="#eef2f8"/>
      <stop offset="1" stop-color="#7694c2"/>
    </linearGradient>
    <linearGradient id="linear-gradient-2" x1="44.45" y1="53.66" x2="106.46" y2="33.96" gradientTransform="translate(0 149.89) scale(1 -1)" gradientUnits="userSpaceOnUse">
      <stop offset="0" stop-color="#b1c3df"/>
      <stop offset=".51" stop-color="#eef2f8"/>
      <stop offset=".88" stop-color="#96afd4"/>
    </linearGradient>
  </defs>
  <path class="cls-6" d="M0,0H150V150H0V0Z"/>
  <path class="cls-5" d="M33.43,19.99c0-3.81,3.09-6.91,6.91-6.91h47.12c21.53,.04,38.98,17.47,38.98,38.98s-17.46,38.94-38.99,38.98l-25.57,49.65h-21.53c-3.81,0-6.91-3.09-6.91-6.91V19.99h0Z"/>
  <text class="cls-4" transform="translate(75.82 76.13)"><tspan x="0" y="0">455c</tspan><tspan class="cls-3" x="3.56" y="0">f</tspan><tspan x="3.99" y="0">f</tspan></text>
  <path class="cls-7" d="M99.05,59.56c1.27-2.97,.6-6.42-1.71-8.66-2.68-2.58-7.22-5.26-14.54-5.26-11.9,0-20.93,8.19-20.93,22.29s14.24,23.11,23.66,23.11l13.52-31.49Z"/>
  <path class="cls-1" d="M61.87,66.84c.02,14.08,12.45,24.21,25.55,24.21,16.04,0,27.52-11.36,27.52-11.36l-53.07,61.01"/>
  <path class="cls-2" d="M115.19,79.66c-7.68,7.17-18.02,11.74-28.6,11.77-8.08,.11-15.89-4.16-20.39-10.84-2.55-3.72-4.32-8.11-4.4-12.66,.01-.83,.04-1.68,.11-2.5,.67-7.98,4.91-16.13,12.82-18.91,6.93-2.47,17.18-1.39,22.45,4.08,1.81,1.88,3.09,4.61,2.37,7.23,0,.02-.05,.01-.04-.01,.58-2.61-.76-5.19-2.58-6.98-5.26-5.11-15.26-6-21.92-3.52-4.88,1.8-8.46,5.94-10.29,10.74-1.17,2.98-1.75,6.2-1.83,9.41,0,.62,0,1.28,.06,1.9,.72,6.36,4.32,12.29,9.31,16.27,10.56,8.42,25.8,5.12,36.51-1.39,2.22-1.37,4.37-2.88,6.3-4.63,.02-.02,.06-.02,.09,0,.05,.01,.05,.05,.02,.06h0Z"/>
</svg>