<?xml version="1.0" encoding="UTF-8"?>
<svg xmlns="http://www.w3.org/2000/svg"
     width="259" height="256"
     viewBox="0 0 259 256"
     role="img" aria-labelledby="title">
  <title id="title">BakimX App Icon</title>
  <defs>
    
<linearGradient id="appBg" x1="0%" y1="0%" x2="100%" y2="100%">
  <stop offset="0%" stop-color="#0869F2"/>
  <stop offset="52%" stop-color="#075FE4"/>
  <stop offset="100%" stop-color="#064BC6"/>
</linearGradient>

  </defs>
  
<rect x="10" y="10" width="239" height="235" rx="45" fill="url(#appBg)"/>
<path d="M 51.00,181.00 L 120.00,181.00 L 125.00,176.00 L 127.00,172.00 L 123.00,166.00 L 117.00,163.00 L 109.00,162.00 L 108.00,161.00 L 103.00,161.00 L 102.00,160.00 L 97.00,160.00 L 91.00,155.00 L 82.00,150.00 L 79.00,150.00 L 78.00,149.00 L 65.00,149.00 Z M 119.00,167.00 L 122.00,166.00 L 124.00,169.00 L 121.00,170.00 Z M 116.00,172.00 L 114.00,173.00 L 111.00,170.00 L 105.00,170.00 L 101.00,174.00 L 100.00,179.00 L 98.00,180.00 L 97.00,178.00 L 91.00,173.00 L 83.00,170.00 L 75.00,169.00 L 74.00,167.00 L 75.00,166.00 L 82.00,166.00 L 83.00,167.00 L 91.00,168.00 L 98.00,171.00 L 101.00,167.00 L 108.00,165.00 L 113.00,167.00 L 116.00,170.00 Z M 70.00,152.00 L 71.00,151.00 L 82.00,152.00 L 89.00,156.00 L 91.00,159.00 L 90.00,160.00 L 73.00,159.00 L 70.00,154.00 Z M 36.00,155.00 L 49.00,155.00 L 52.00,151.00 L 52.00,148.00 L 41.00,148.00 L 38.00,150.00 Z M 32.00,136.00 L 59.00,136.00 L 61.00,134.00 L 61.00,132.00 L 63.00,129.00 L 35.00,129.00 L 32.00,133.00 Z M 45.00,117.00 L 67.00,117.00 L 70.00,112.00 L 70.00,110.00 L 49.00,110.00 L 46.00,113.00 Z M 221.00,108.00 L 220.00,109.00 L 217.00,108.00 L 195.00,109.00 L 171.00,136.00 L 171.00,138.00 L 184.00,152.00 L 203.00,129.00 L 216.00,115.00 Z M 75.00,70.00 L 67.00,94.00 L 132.00,94.00 L 134.00,95.00 L 139.00,101.00 L 138.00,107.00 L 134.00,111.00 L 129.00,113.00 L 81.00,113.00 L 71.00,136.00 L 118.00,136.00 L 119.00,137.00 L 123.00,137.00 L 129.00,140.00 L 148.00,159.00 L 145.00,164.00 L 116.00,196.00 L 145.00,196.00 L 145.00,195.00 L 164.00,175.00 L 165.00,175.00 L 166.00,177.00 L 185.00,196.00 L 213.00,196.00 L 213.00,195.00 L 176.00,156.00 L 176.00,155.00 L 151.00,130.00 L 151.00,129.00 L 149.00,128.00 L 149.00,127.00 L 162.00,115.00 L 166.00,103.00 L 166.00,95.00 L 165.00,94.00 L 164.00,88.00 L 162.00,84.00 L 157.00,78.00 L 147.00,72.00 L 141.00,71.00 L 140.00,70.00 Z" fill="#FFFFFF" fill-rule="evenodd"/>

</svg>
